<?xml version="1.0" encoding="utf-8" standalone="no"?>
<!DOCTYPE svg PUBLIC "-//W3C//DTD SVG 1.1//EN"
  "http://www.w3.org/Graphics/SVG/1.1/DTD/svg11.dtd">
<!-- Created with matplotlib (http://matplotlib.org/) -->
<svg height="355.68pt" version="1.1" viewBox="0 0 576 355.68" width="576pt" xmlns="http://www.w3.org/2000/svg" xmlns:xlink="http://www.w3.org/1999/xlink">
 <defs>
  <style type="text/css">
*{stroke-linecap:butt;stroke-linejoin:round;}
  </style>
 </defs>
 <g id="figure_1">
  <g id="patch_1">
   <path d="M 0 355.68 
L 576 355.68 
L 576 0 
L 0 0 
z
" style="fill:none;"/>
  </g>
  <g id="axes_1">
   <g id="patch_2">
    <path d="M 39.94 298.329594 
L 185.88 298.329594 
L 185.88 24.698642 
L 39.94 24.698642 
z
" style="fill:#ffffff;"/>
   </g>
   <g id="matplotlib.axis_1">
    <g id="xtick_1">
     <g id="line2d_1">
      <defs>
       <path d="M 0 0 
L 0 3.5 
" id="mb5fb9d026e" style="stroke:#000000;stroke-width:0.8;"/>
      </defs>
      <g>
       <use style="stroke:#000000;stroke-width:0.8;" x="44.232353" xlink:href="#mb5fb9d026e" y="298.329594"/>
      </g>
     </g>
     <g id="text_1">
      <!-- One -->
      <defs>
       <path d="M 39.40625 66.21875 
Q 28.65625 66.21875 22.328125 58.203125 
Q 16.015625 50.203125 16.015625 36.375 
Q 16.015625 22.609375 22.328125 14.59375 
Q 28.65625 6.59375 39.40625 6.59375 
Q 50.140625 6.59375 56.421875 14.59375 
Q 62.703125 22.609375 62.703125 36.375 
Q 62.703125 50.203125 56.421875 58.203125 
Q 50.140625 66.21875 39.40625 66.21875 
z
M 39.40625 74.21875 
Q 54.734375 74.21875 63.90625 63.9375 
Q 73.09375 53.65625 73.09375 36.375 
Q 73.09375 19.140625 63.90625 8.859375 
Q 54.734375 -1.421875 39.40625 -1.421875 
Q 24.03125 -1.421875 14.8125 8.828125 
Q 5.609375 19.09375 5.609375 36.375 
Q 5.609375 53.65625 14.8125 63.9375 
Q 24.03125 74.21875 39.40625 74.21875 
z
" id="DejaVuSans-4f"/>
       <path d="M 54.890625 33.015625 
L 54.890625 0 
L 45.90625 0 
L 45.90625 32.71875 
Q 45.90625 40.484375 42.875 44.328125 
Q 39.84375 48.1875 33.796875 48.1875 
Q 26.515625 48.1875 22.3125 43.546875 
Q 18.109375 38.921875 18.109375 30.90625 
L 18.109375 0 
L 9.078125 0 
L 9.078125 54.6875 
L 18.109375 54.6875 
L 18.109375 46.1875 
Q 21.34375 51.125 25.703125 53.5625 
Q 30.078125 56 35.796875 56 
Q 45.21875 56 50.046875 50.171875 
Q 54.890625 44.34375 54.890625 33.015625 
z
" id="DejaVuSans-6e"/>
       <path d="M 56.203125 29.59375 
L 56.203125 25.203125 
L 14.890625 25.203125 
Q 15.484375 15.921875 20.484375 11.0625 
Q 25.484375 6.203125 34.421875 6.203125 
Q 39.59375 6.203125 44.453125 7.46875 
Q 49.3125 8.734375 54.109375 11.28125 
L 54.109375 2.78125 
Q 49.265625 0.734375 44.1875 -0.34375 
Q 39.109375 -1.421875 33.890625 -1.421875 
Q 20.796875 -1.421875 13.15625 6.1875 
Q 5.515625 13.8125 5.515625 26.8125 
Q 5.515625 40.234375 12.765625 48.109375 
Q 20.015625 56 32.328125 56 
Q 43.359375 56 49.78125 48.890625 
Q 56.203125 41.796875 56.203125 29.59375 
z
M 47.21875 32.234375 
Q 47.125 39.59375 43.09375 43.984375 
Q 39.0625 48.390625 32.421875 48.390625 
Q 24.90625 48.390625 20.390625 44.140625 
Q 15.875 39.890625 15.1875 32.171875 
z
" id="DejaVuSans-65"/>
      </defs>
      <g transform="translate(46.991728 325.692094)rotate(-90)scale(0.1 -0.1)">
       <use xlink:href="#DejaVuSans-4f"/>
       <use x="78.710938" xlink:href="#DejaVuSans-6e"/>
       <use x="142.089844" xlink:href="#DejaVuSans-65"/>
      </g>
     </g>
    </g>
    <g id="xtick_2">
     <g id="line2d_2">
      <g>
       <use style="stroke:#000000;stroke-width:0.8;" x="52.817059" xlink:href="#mb5fb9d026e" y="298.329594"/>
      </g>
     </g>
     <g id="text_2">
      <!-- 2 -->
      <defs>
       <path d="M 19.1875 8.296875 
L 53.609375 8.296875 
L 53.609375 0 
L 7.328125 0 
L 7.328125 8.296875 
Q 12.9375 14.109375 22.625 23.890625 
Q 32.328125 33.6875 34.8125 36.53125 
Q 39.546875 41.84375 41.421875 45.53125 
Q 43.3125 49.21875 43.3125 52.78125 
Q 43.3125 58.59375 39.234375 62.25 
Q 35.15625 65.921875 28.609375 65.921875 
Q 23.96875 65.921875 18.8125 64.3125 
Q 13.671875 62.703125 7.8125 59.421875 
L 7.8125 69.390625 
Q 13.765625 71.78125 18.9375 73 
Q 24.125 74.21875 28.421875 74.21875 
Q 39.75 74.21875 46.484375 68.546875 
Q 53.21875 62.890625 53.21875 53.421875 
Q 53.21875 48.921875 51.53125 44.890625 
Q 49.859375 40.875 45.40625 35.40625 
Q 44.1875 33.984375 37.640625 27.21875 
Q 31.109375 20.453125 19.1875 8.296875 
z
" id="DejaVuSans-32"/>
      </defs>
      <g transform="translate(55.576434 311.692094)rotate(-90)scale(0.1 -0.1)">
       <use xlink:href="#DejaVuSans-32"/>
      </g>
     </g>
    </g>
    <g id="xtick_3">
     <g id="line2d_3">
      <g>
       <use style="stroke:#000000;stroke-width:0.8;" x="61.401765" xlink:href="#mb5fb9d026e" y="298.329594"/>
      </g>
     </g>
     <g id="text_3">
      <!-- 3 -->
      <defs>
       <path d="M 40.578125 39.3125 
Q 47.65625 37.796875 51.625 33 
Q 55.609375 28.21875 55.609375 21.1875 
Q 55.609375 10.40625 48.1875 4.484375 
Q 40.765625 -1.421875 27.09375 -1.421875 
Q 22.515625 -1.421875 17.65625 -0.515625 
Q 12.796875 0.390625 7.625 2.203125 
L 7.625 11.71875 
Q 11.71875 9.328125 16.59375 8.109375 
Q 21.484375 6.890625 26.8125 6.890625 
Q 36.078125 6.890625 40.9375 10.546875 
Q 45.796875 14.203125 45.796875 21.1875 
Q 45.796875 27.640625 41.28125 31.265625 
Q 36.765625 34.90625 28.71875 34.90625 
L 20.21875 34.90625 
L 20.21875 43.015625 
L 29.109375 43.015625 
Q 36.375 43.015625 40.234375 45.921875 
Q 44.09375 48.828125 44.09375 54.296875 
Q 44.09375 59.90625 40.109375 62.90625 
Q 36.140625 65.921875 28.71875 65.921875 
Q 24.65625 65.921875 20.015625 65.03125 
Q 15.375 64.15625 9.8125 62.3125 
L 9.8125 71.09375 
Q 15.4375 72.65625 20.34375 73.4375 
Q 25.25 74.21875 29.59375 74.21875 
Q 40.828125 74.21875 47.359375 69.109375 
Q 53.90625 64.015625 53.90625 55.328125 
Q 53.90625 49.265625 50.4375 45.09375 
Q 46.96875 40.921875 40.578125 39.3125 
z
" id="DejaVuSans-33"/>
      </defs>
      <g transform="translate(64.16114 311.692094)rotate(-90)scale(0.1 -0.1)">
       <use xlink:href="#DejaVuSans-33"/>
      </g>
     </g>
    </g>
    <g id="xtick_4">
     <g id="line2d_4">
      <g>
       <use style="stroke:#000000;stroke-width:0.8;" x="69.986471" xlink:href="#mb5fb9d026e" y="298.329594"/>
      </g>
     </g>
     <g id="text_4">
      <!-- 4 -->
      <defs>
       <path d="M 37.796875 64.3125 
L 12.890625 25.390625 
L 37.796875 25.390625 
z
M 35.203125 72.90625 
L 47.609375 72.90625 
L 47.609375 25.390625 
L 58.015625 25.390625 
L 58.015625 17.1875 
L 47.609375 17.1875 
L 47.609375 0 
L 37.796875 0 
L 37.796875 17.1875 
L 4.890625 17.1875 
L 4.890625 26.703125 
z
" id="DejaVuSans-34"/>
      </defs>
      <g transform="translate(72.745846 311.692094)rotate(-90)scale(0.1 -0.1)">
       <use xlink:href="#DejaVuSans-34"/>
      </g>
     </g>
    </g>
    <g id="xtick_5">
     <g id="line2d_5">
      <g>
       <use style="stroke:#000000;stroke-width:0.8;" x="78.571176" xlink:href="#mb5fb9d026e" y="298.329594"/>
      </g>
     </g>
     <g id="text_5">
      <!-- 5 -->
      <defs>
       <path d="M 10.796875 72.90625 
L 49.515625 72.90625 
L 49.515625 64.59375 
L 19.828125 64.59375 
L 19.828125 46.734375 
Q 21.96875 47.46875 24.109375 47.828125 
Q 26.265625 48.1875 28.421875 48.1875 
Q 40.625 48.1875 47.75 41.5 
Q 54.890625 34.8125 54.890625 23.390625 
Q 54.890625 11.625 47.5625 5.09375 
Q 40.234375 -1.421875 26.90625 -1.421875 
Q 22.3125 -1.421875 17.546875 -0.640625 
Q 12.796875 0.140625 7.71875 1.703125 
L 7.71875 11.625 
Q 12.109375 9.234375 16.796875 8.0625 
Q 21.484375 6.890625 26.703125 6.890625 
Q 35.15625 6.890625 40.078125 11.328125 
Q 45.015625 15.765625 45.015625 23.390625 
Q 45.015625 31 40.078125 35.4375 
Q 35.15625 39.890625 26.703125 39.890625 
Q 22.75 39.890625 18.8125 39.015625 
Q 14.890625 38.140625 10.796875 36.28125 
z
" id="DejaVuSans-35"/>
      </defs>
      <g transform="translate(81.330551 311.692094)rotate(-90)scale(0.1 -0.1)">
       <use xlink:href="#DejaVuSans-35"/>
      </g>
     </g>
    </g>
    <g id="xtick_6">
     <g id="line2d_6">
      <g>
       <use style="stroke:#000000;stroke-width:0.8;" x="87.155882" xlink:href="#mb5fb9d026e" y="298.329594"/>
      </g>
     </g>
     <g id="text_6">
      <!-- 6 -->
      <defs>
       <path d="M 33.015625 40.375 
Q 26.375 40.375 22.484375 35.828125 
Q 18.609375 31.296875 18.609375 23.390625 
Q 18.609375 15.53125 22.484375 10.953125 
Q 26.375 6.390625 33.015625 6.390625 
Q 39.65625 6.390625 43.53125 10.953125 
Q 47.40625 15.53125 47.40625 23.390625 
Q 47.40625 31.296875 43.53125 35.828125 
Q 39.65625 40.375 33.015625 40.375 
z
M 52.59375 71.296875 
L 52.59375 62.3125 
Q 48.875 64.0625 45.09375 64.984375 
Q 41.3125 65.921875 37.59375 65.921875 
Q 27.828125 65.921875 22.671875 59.328125 
Q 17.53125 52.734375 16.796875 39.40625 
Q 19.671875 43.65625 24.015625 45.921875 
Q 28.375 48.1875 33.59375 48.1875 
Q 44.578125 48.1875 50.953125 41.515625 
Q 57.328125 34.859375 57.328125 23.390625 
Q 57.328125 12.15625 50.6875 5.359375 
Q 44.046875 -1.421875 33.015625 -1.421875 
Q 20.359375 -1.421875 13.671875 8.265625 
Q 6.984375 17.96875 6.984375 36.375 
Q 6.984375 53.65625 15.1875 63.9375 
Q 23.390625 74.21875 37.203125 74.21875 
Q 40.921875 74.21875 44.703125 73.484375 
Q 48.484375 72.75 52.59375 71.296875 
z
" id="DejaVuSans-36"/>
      </defs>
      <g transform="translate(89.915257 311.692094)rotate(-90)scale(0.1 -0.1)">
       <use xlink:href="#DejaVuSans-36"/>
      </g>
     </g>
    </g>
    <g id="xtick_7">
     <g id="line2d_7">
      <g>
       <use style="stroke:#000000;stroke-width:0.8;" x="95.740588" xlink:href="#mb5fb9d026e" y="298.329594"/>
      </g>
     </g>
     <g id="text_7">
      <!-- 7 -->
      <defs>
       <path d="M 8.203125 72.90625 
L 55.078125 72.90625 
L 55.078125 68.703125 
L 28.609375 0 
L 18.3125 0 
L 43.21875 64.59375 
L 8.203125 64.59375 
z
" id="DejaVuSans-37"/>
      </defs>
      <g transform="translate(98.499963 311.692094)rotate(-90)scale(0.1 -0.1)">
       <use xlink:href="#DejaVuSans-37"/>
      </g>
     </g>
    </g>
    <g id="xtick_8">
     <g id="line2d_8">
      <g>
       <use style="stroke:#000000;stroke-width:0.8;" x="104.325294" xlink:href="#mb5fb9d026e" y="298.329594"/>
      </g>
     </g>
     <g id="text_8">
      <!-- 8 -->
      <defs>
       <path d="M 31.78125 34.625 
Q 24.75 34.625 20.71875 30.859375 
Q 16.703125 27.09375 16.703125 20.515625 
Q 16.703125 13.921875 20.71875 10.15625 
Q 24.75 6.390625 31.78125 6.390625 
Q 38.8125 6.390625 42.859375 10.171875 
Q 46.921875 13.96875 46.921875 20.515625 
Q 46.921875 27.09375 42.890625 30.859375 
Q 38.875 34.625 31.78125 34.625 
z
M 21.921875 38.8125 
Q 15.578125 40.375 12.03125 44.71875 
Q 8.5 49.078125 8.5 55.328125 
Q 8.5 64.0625 14.71875 69.140625 
Q 20.953125 74.21875 31.78125 74.21875 
Q 42.671875 74.21875 48.875 69.140625 
Q 55.078125 64.0625 55.078125 55.328125 
Q 55.078125 49.078125 51.53125 44.71875 
Q 48 40.375 41.703125 38.8125 
Q 48.828125 37.15625 52.796875 32.3125 
Q 56.78125 27.484375 56.78125 20.515625 
Q 56.78125 9.90625 50.3125 4.234375 
Q 43.84375 -1.421875 31.78125 -1.421875 
Q 19.734375 -1.421875 13.25 4.234375 
Q 6.78125 9.90625 6.78125 20.515625 
Q 6.78125 27.484375 10.78125 32.3125 
Q 14.796875 37.15625 21.921875 38.8125 
z
M 18.3125 54.390625 
Q 18.3125 48.734375 21.84375 45.5625 
Q 25.390625 42.390625 31.78125 42.390625 
Q 38.140625 42.390625 41.71875 45.5625 
Q 45.3125 48.734375 45.3125 54.390625 
Q 45.3125 60.0625 41.71875 63.234375 
Q 38.140625 66.40625 31.78125 66.40625 
Q 25.390625 66.40625 21.84375 63.234375 
Q 18.3125 60.0625 18.3125 54.390625 
z
" id="DejaVuSans-38"/>
      </defs>
      <g transform="translate(107.084669 311.692094)rotate(-90)scale(0.1 -0.1)">
       <use xlink:href="#DejaVuSans-38"/>
      </g>
     </g>
    </g>
    <g id="xtick_9">
     <g id="line2d_9">
      <g>
       <use style="stroke:#000000;stroke-width:0.8;" x="112.91" xlink:href="#mb5fb9d026e" y="298.329594"/>
      </g>
     </g>
     <g id="text_9">
      <!-- 9 -->
      <defs>
       <path d="M 10.984375 1.515625 
L 10.984375 10.5 
Q 14.703125 8.734375 18.5 7.8125 
Q 22.3125 6.890625 25.984375 6.890625 
Q 35.75 6.890625 40.890625 13.453125 
Q 46.046875 20.015625 46.78125 33.40625 
Q 43.953125 29.203125 39.59375 26.953125 
Q 35.25 24.703125 29.984375 24.703125 
Q 19.046875 24.703125 12.671875 31.3125 
Q 6.296875 37.9375 6.296875 49.421875 
Q 6.296875 60.640625 12.9375 67.421875 
Q 19.578125 74.21875 30.609375 74.21875 
Q 43.265625 74.21875 49.921875 64.515625 
Q 56.59375 54.828125 56.59375 36.375 
Q 56.59375 19.140625 48.40625 8.859375 
Q 40.234375 -1.421875 26.421875 -1.421875 
Q 22.703125 -1.421875 18.890625 -0.6875 
Q 15.09375 0.046875 10.984375 1.515625 
z
M 30.609375 32.421875 
Q 37.25 32.421875 41.125 36.953125 
Q 45.015625 41.5 45.015625 49.421875 
Q 45.015625 57.28125 41.125 61.84375 
Q 37.25 66.40625 30.609375 66.40625 
Q 23.96875 66.40625 20.09375 61.84375 
Q 16.21875 57.28125 16.21875 49.421875 
Q 16.21875 41.5 20.09375 36.953125 
Q 23.96875 32.421875 30.609375 32.421875 
z
" id="DejaVuSans-39"/>
      </defs>
      <g transform="translate(115.669375 311.692094)rotate(-90)scale(0.1 -0.1)">
       <use xlink:href="#DejaVuSans-39"/>
      </g>
     </g>
    </g>
    <g id="xtick_10">
     <g id="line2d_10">
      <g>
       <use style="stroke:#000000;stroke-width:0.8;" x="121.494706" xlink:href="#mb5fb9d026e" y="298.329594"/>
      </g>
     </g>
     <g id="text_10">
      <!-- 10 -->
      <defs>
       <path d="M 12.40625 8.296875 
L 28.515625 8.296875 
L 28.515625 63.921875 
L 10.984375 60.40625 
L 10.984375 69.390625 
L 28.421875 72.90625 
L 38.28125 72.90625 
L 38.28125 8.296875 
L 54.390625 8.296875 
L 54.390625 0 
L 12.40625 0 
z
" id="DejaVuSans-31"/>
       <path d="M 31.78125 66.40625 
Q 24.171875 66.40625 20.328125 58.90625 
Q 16.5 51.421875 16.5 36.375 
Q 16.5 21.390625 20.328125 13.890625 
Q 24.171875 6.390625 31.78125 6.390625 
Q 39.453125 6.390625 43.28125 13.890625 
Q 47.125 21.390625 47.125 36.375 
Q 47.125 51.421875 43.28125 58.90625 
Q 39.453125 66.40625 31.78125 66.40625 
z
M 31.78125 74.21875 
Q 44.046875 74.21875 50.515625 64.515625 
Q 56.984375 54.828125 56.984375 36.375 
Q 56.984375 17.96875 50.515625 8.265625 
Q 44.046875 -1.421875 31.78125 -1.421875 
Q 19.53125 -1.421875 13.0625 8.265625 
Q 6.59375 17.96875 6.59375 36.375 
Q 6.59375 54.828125 13.0625 64.515625 
Q 19.53125 74.21875 31.78125 74.21875 
z
" id="DejaVuSans-30"/>
      </defs>
      <g transform="translate(124.254081 318.054594)rotate(-90)scale(0.1 -0.1)">
       <use xlink:href="#DejaVuSans-31"/>
       <use x="63.623047" xlink:href="#DejaVuSans-30"/>
      </g>
     </g>
    </g>
    <g id="xtick_11">
     <g id="line2d_11">
      <g>
       <use style="stroke:#000000;stroke-width:0.8;" x="130.079412" xlink:href="#mb5fb9d026e" y="298.329594"/>
      </g>
     </g>
     <g id="text_11">
      <!-- J -->
      <defs>
       <path d="M 9.8125 72.90625 
L 19.671875 72.90625 
L 19.671875 5.078125 
Q 19.671875 -8.109375 14.671875 -14.0625 
Q 9.671875 -20.015625 -1.421875 -20.015625 
L -5.171875 -20.015625 
L -5.171875 -11.71875 
L -2.09375 -11.71875 
Q 4.4375 -11.71875 7.125 -8.046875 
Q 9.8125 -4.390625 9.8125 5.078125 
z
" id="DejaVuSans-4a"/>
      </defs>
      <g transform="translate(132.838787 308.279594)rotate(-90)scale(0.1 -0.1)">
       <use xlink:href="#DejaVuSans-4a"/>
      </g>
     </g>
    </g>
    <g id="xtick_12">
     <g id="line2d_12">
      <g>
       <use style="stroke:#000000;stroke-width:0.8;" x="138.664118" xlink:href="#mb5fb9d026e" y="298.329594"/>
      </g>
     </g>
     <g id="text_12">
      <!-- Q -->
      <defs>
       <path d="M 39.40625 66.21875 
Q 28.65625 66.21875 22.328125 58.203125 
Q 16.015625 50.203125 16.015625 36.375 
Q 16.015625 22.609375 22.328125 14.59375 
Q 28.65625 6.59375 39.40625 6.59375 
Q 50.140625 6.59375 56.421875 14.59375 
Q 62.703125 22.609375 62.703125 36.375 
Q 62.703125 50.203125 56.421875 58.203125 
Q 50.140625 66.21875 39.40625 66.21875 
z
M 53.21875 1.3125 
L 66.21875 -12.890625 
L 54.296875 -12.890625 
L 43.5 -1.21875 
Q 41.890625 -1.3125 41.03125 -1.359375 
Q 40.1875 -1.421875 39.40625 -1.421875 
Q 24.03125 -1.421875 14.8125 8.859375 
Q 5.609375 19.140625 5.609375 36.375 
Q 5.609375 53.65625 14.8125 63.9375 
Q 24.03125 74.21875 39.40625 74.21875 
Q 54.734375 74.21875 63.90625 63.9375 
Q 73.09375 53.65625 73.09375 36.375 
Q 73.09375 23.6875 67.984375 14.640625 
Q 62.890625 5.609375 53.21875 1.3125 
z
" id="DejaVuSans-51"/>
      </defs>
      <g transform="translate(141.423493 313.201469)rotate(-90)scale(0.1 -0.1)">
       <use xlink:href="#DejaVuSans-51"/>
      </g>
     </g>
    </g>
    <g id="xtick_13">
     <g id="line2d_13">
      <g>
       <use style="stroke:#000000;stroke-width:0.8;" x="147.248824" xlink:href="#mb5fb9d026e" y="298.329594"/>
      </g>
     </g>
     <g id="text_13">
      <!-- K -->
      <defs>
       <path d="M 9.8125 72.90625 
L 19.671875 72.90625 
L 19.671875 42.09375 
L 52.390625 72.90625 
L 65.09375 72.90625 
L 28.90625 38.921875 
L 67.671875 0 
L 54.6875 0 
L 19.671875 35.109375 
L 19.671875 0 
L 9.8125 0 
z
" id="DejaVuSans-4b"/>
      </defs>
      <g transform="translate(150.008199 311.887407)rotate(-90)scale(0.1 -0.1)">
       <use xlink:href="#DejaVuSans-4b"/>
      </g>
     </g>
    </g>
    <g id="xtick_14">
     <g id="line2d_14">
      <g>
       <use style="stroke:#000000;stroke-width:0.8;" x="155.833529" xlink:href="#mb5fb9d026e" y="298.329594"/>
      </g>
     </g>
     <g id="text_14">
      <!-- A -->
      <defs>
       <path d="M 34.1875 63.1875 
L 20.796875 26.90625 
L 47.609375 26.90625 
z
M 28.609375 72.90625 
L 39.796875 72.90625 
L 67.578125 0 
L 57.328125 0 
L 50.6875 18.703125 
L 17.828125 18.703125 
L 11.1875 0 
L 0.78125 0 
z
" id="DejaVuSans-41"/>
      </defs>
      <g transform="translate(158.592904 312.170219)rotate(-90)scale(0.1 -0.1)">
       <use xlink:href="#DejaVuSans-41"/>
      </g>
     </g>
    </g>
    <g id="xtick_15">
     <g id="line2d_15">
      <g>
       <use style="stroke:#000000;stroke-width:0.8;" x="164.418235" xlink:href="#mb5fb9d026e" y="298.329594"/>
      </g>
     </g>
     <g id="text_15">
      <!-- Dog -->
      <defs>
       <path d="M 19.671875 64.796875 
L 19.671875 8.109375 
L 31.59375 8.109375 
Q 46.6875 8.109375 53.6875 14.9375 
Q 60.6875 21.78125 60.6875 36.53125 
Q 60.6875 51.171875 53.6875 57.984375 
Q 46.6875 64.796875 31.59375 64.796875 
z
M 9.8125 72.90625 
L 30.078125 72.90625 
Q 51.265625 72.90625 61.171875 64.09375 
Q 71.09375 55.28125 71.09375 36.53125 
Q 71.09375 17.671875 61.125 8.828125 
Q 51.171875 0 30.078125 0 
L 9.8125 0 
z
" id="DejaVuSans-44"/>
       <path d="M 30.609375 48.390625 
Q 23.390625 48.390625 19.1875 42.75 
Q 14.984375 37.109375 14.984375 27.296875 
Q 14.984375 17.484375 19.15625 11.84375 
Q 23.34375 6.203125 30.609375 6.203125 
Q 37.796875 6.203125 41.984375 11.859375 
Q 46.1875 17.53125 46.1875 27.296875 
Q 46.1875 37.015625 41.984375 42.703125 
Q 37.796875 48.390625 30.609375 48.390625 
z
M 30.609375 56 
Q 42.328125 56 49.015625 48.375 
Q 55.71875 40.765625 55.71875 27.296875 
Q 55.71875 13.875 49.015625 6.21875 
Q 42.328125 -1.421875 30.609375 -1.421875 
Q 18.84375 -1.421875 12.171875 6.21875 
Q 5.515625 13.875 5.515625 27.296875 
Q 5.515625 40.765625 12.171875 48.375 
Q 18.84375 56 30.609375 56 
z
" id="DejaVuSans-6f"/>
       <path d="M 45.40625 27.984375 
Q 45.40625 37.75 41.375 43.109375 
Q 37.359375 48.484375 30.078125 48.484375 
Q 22.859375 48.484375 18.828125 43.109375 
Q 14.796875 37.75 14.796875 27.984375 
Q 14.796875 18.265625 18.828125 12.890625 
Q 22.859375 7.515625 30.078125 7.515625 
Q 37.359375 7.515625 41.375 12.890625 
Q 45.40625 18.265625 45.40625 27.984375 
z
M 54.390625 6.78125 
Q 54.390625 -7.171875 48.1875 -13.984375 
Q 42 -20.796875 29.203125 -20.796875 
Q 24.46875 -20.796875 20.265625 -20.09375 
Q 16.0625 -19.390625 12.109375 -17.921875 
L 12.109375 -9.1875 
Q 16.0625 -11.328125 19.921875 -12.34375 
Q 23.78125 -13.375 27.78125 -13.375 
Q 36.625 -13.375 41.015625 -8.765625 
Q 45.40625 -4.15625 45.40625 5.171875 
L 45.40625 9.625 
Q 42.625 4.78125 38.28125 2.390625 
Q 33.9375 0 27.875 0 
Q 17.828125 0 11.671875 7.65625 
Q 5.515625 15.328125 5.515625 27.984375 
Q 5.515625 40.671875 11.671875 48.328125 
Q 17.828125 56 27.875 56 
Q 33.9375 56 38.28125 53.609375 
Q 42.625 51.21875 45.40625 46.390625 
L 45.40625 54.6875 
L 54.390625 54.6875 
z
" id="DejaVuSans-67"/>
      </defs>
      <g transform="translate(167.17761 325.496782)rotate(-90)scale(0.1 -0.1)">
       <use xlink:href="#DejaVuSans-44"/>
       <use x="77.001953" xlink:href="#DejaVuSans-6f"/>
       <use x="138.183594" xlink:href="#DejaVuSans-67"/>
      </g>
     </g>
    </g>
    <g id="xtick_16">
     <g id="line2d_16">
      <g>
       <use style="stroke:#000000;stroke-width:0.8;" x="173.002941" xlink:href="#mb5fb9d026e" y="298.329594"/>
      </g>
     </g>
     <g id="text_16">
      <!-- Phoenix -->
      <defs>
       <path d="M 19.671875 64.796875 
L 19.671875 37.40625 
L 32.078125 37.40625 
Q 38.96875 37.40625 42.71875 40.96875 
Q 46.484375 44.53125 46.484375 51.125 
Q 46.484375 57.671875 42.71875 61.234375 
Q 38.96875 64.796875 32.078125 64.796875 
z
M 9.8125 72.90625 
L 32.078125 72.90625 
Q 44.34375 72.90625 50.609375 67.359375 
Q 56.890625 61.8125 56.890625 51.125 
Q 56.890625 40.328125 50.609375 34.8125 
Q 44.34375 29.296875 32.078125 29.296875 
L 19.671875 29.296875 
L 19.671875 0 
L 9.8125 0 
z
" id="DejaVuSans-50"/>
       <path d="M 54.890625 33.015625 
L 54.890625 0 
L 45.90625 0 
L 45.90625 32.71875 
Q 45.90625 40.484375 42.875 44.328125 
Q 39.84375 48.1875 33.796875 48.1875 
Q 26.515625 48.1875 22.3125 43.546875 
Q 18.109375 38.921875 18.109375 30.90625 
L 18.109375 0 
L 9.078125 0 
L 9.078125 75.984375 
L 18.109375 75.984375 
L 18.109375 46.1875 
Q 21.34375 51.125 25.703125 53.5625 
Q 30.078125 56 35.796875 56 
Q 45.21875 56 50.046875 50.171875 
Q 54.890625 44.34375 54.890625 33.015625 
z
" id="DejaVuSans-68"/>
       <path d="M 9.421875 54.6875 
L 18.40625 54.6875 
L 18.40625 0 
L 9.421875 0 
z
M 9.421875 75.984375 
L 18.40625 75.984375 
L 18.40625 64.59375 
L 9.421875 64.59375 
z
" id="DejaVuSans-69"/>
       <path d="M 54.890625 54.6875 
L 35.109375 28.078125 
L 55.90625 0 
L 45.3125 0 
L 29.390625 21.484375 
L 13.484375 0 
L 2.875 0 
L 24.125 28.609375 
L 4.6875 54.6875 
L 15.28125 54.6875 
L 29.78125 35.203125 
L 44.28125 54.6875 
z
" id="DejaVuSans-78"/>
      </defs>
      <g transform="translate(175.762316 345.003032)rotate(-90)scale(0.1 -0.1)">
       <use xlink:href="#DejaVuSans-50"/>
       <use x="60.302734" xlink:href="#DejaVuSans-68"/>
       <use x="123.681641" xlink:href="#DejaVuSans-6f"/>
       <use x="184.863281" xlink:href="#DejaVuSans-65"/>
       <use x="246.386719" xlink:href="#DejaVuSans-6e"/>
       <use x="309.765625" xlink:href="#DejaVuSans-69"/>
       <use x="337.548828" xlink:href="#DejaVuSans-78"/>
      </g>
     </g>
    </g>
    <g id="xtick_17">
     <g id="line2d_17">
      <g>
       <use style="stroke:#000000;stroke-width:0.8;" x="181.587647" xlink:href="#mb5fb9d026e" y="298.329594"/>
      </g>
     </g>
     <g id="text_17">
      <!-- Dragon -->
      <defs>
       <path d="M 41.109375 46.296875 
Q 39.59375 47.171875 37.8125 47.578125 
Q 36.03125 48 33.890625 48 
Q 26.265625 48 22.1875 43.046875 
Q 18.109375 38.09375 18.109375 28.8125 
L 18.109375 0 
L 9.078125 0 
L 9.078125 54.6875 
L 18.109375 54.6875 
L 18.109375 46.1875 
Q 20.953125 51.171875 25.484375 53.578125 
Q 30.03125 56 36.53125 56 
Q 37.453125 56 38.578125 55.875 
Q 39.703125 55.765625 41.0625 55.515625 
z
" id="DejaVuSans-72"/>
       <path d="M 34.28125 27.484375 
Q 23.390625 27.484375 19.1875 25 
Q 14.984375 22.515625 14.984375 16.5 
Q 14.984375 11.71875 18.140625 8.90625 
Q 21.296875 6.109375 26.703125 6.109375 
Q 34.1875 6.109375 38.703125 11.40625 
Q 43.21875 16.703125 43.21875 25.484375 
L 43.21875 27.484375 
z
M 52.203125 31.203125 
L 52.203125 0 
L 43.21875 0 
L 43.21875 8.296875 
Q 40.140625 3.328125 35.546875 0.953125 
Q 30.953125 -1.421875 24.3125 -1.421875 
Q 15.921875 -1.421875 10.953125 3.296875 
Q 6 8.015625 6 15.921875 
Q 6 25.140625 12.171875 29.828125 
Q 18.359375 34.515625 30.609375 34.515625 
L 43.21875 34.515625 
L 43.21875 35.40625 
Q 43.21875 41.609375 39.140625 45 
Q 35.0625 48.390625 27.6875 48.390625 
Q 23 48.390625 18.546875 47.265625 
Q 14.109375 46.140625 10.015625 43.890625 
L 10.015625 52.203125 
Q 14.9375 54.109375 19.578125 55.046875 
Q 24.21875 56 28.609375 56 
Q 40.484375 56 46.34375 49.84375 
Q 52.203125 43.703125 52.203125 31.203125 
z
" id="DejaVuSans-61"/>
      </defs>
      <g transform="translate(184.347022 342.073344)rotate(-90)scale(0.1 -0.1)">
       <use xlink:href="#DejaVuSans-44"/>
       <use x="77.001953" xlink:href="#DejaVuSans-72"/>
       <use x="118.115234" xlink:href="#DejaVuSans-61"/>
       <use x="179.394531" xlink:href="#DejaVuSans-67"/>
       <use x="242.871094" xlink:href="#DejaVuSans-6f"/>
       <use x="304.052734" xlink:href="#DejaVuSans-6e"/>
      </g>
     </g>
    </g>
   </g>
   <g id="matplotlib.axis_2">
    <g id="ytick_1">
     <g id="line2d_18">
      <defs>
       <path d="M 0 0 
L -3.5 0 
" id="m57f795fbf1" style="stroke:#000000;stroke-width:0.8;"/>
      </defs>
      <g>
       <use style="stroke:#000000;stroke-width:0.8;" x="39.94" xlink:href="#m57f795fbf1" y="298.329594"/>
      </g>
     </g>
     <g id="text_18">
      <!-- 0.00 -->
      <defs>
       <path d="M 10.6875 12.40625 
L 21 12.40625 
L 21 0 
L 10.6875 0 
z
" id="DejaVuSans-2e"/>
      </defs>
      <g transform="translate(10.674375 302.128813)scale(0.1 -0.1)">
       <use xlink:href="#DejaVuSans-30"/>
       <use x="63.623047" xlink:href="#DejaVuSans-2e"/>
       <use x="95.410156" xlink:href="#DejaVuSans-30"/>
       <use x="159.033203" xlink:href="#DejaVuSans-30"/>
      </g>
     </g>
    </g>
    <g id="ytick_2">
     <g id="line2d_19">
      <g>
       <use style="stroke:#000000;stroke-width:0.8;" x="39.94" xlink:href="#m57f795fbf1" y="259.239458"/>
      </g>
     </g>
     <g id="text_19">
      <!-- 0.05 -->
      <g transform="translate(10.674375 263.038677)scale(0.1 -0.1)">
       <use xlink:href="#DejaVuSans-30"/>
       <use x="63.623047" xlink:href="#DejaVuSans-2e"/>
       <use x="95.410156" xlink:href="#DejaVuSans-30"/>
       <use x="159.033203" xlink:href="#DejaVuSans-35"/>
      </g>
     </g>
    </g>
    <g id="ytick_3">
     <g id="line2d_20">
      <g>
       <use style="stroke:#000000;stroke-width:0.8;" x="39.94" xlink:href="#m57f795fbf1" y="220.149322"/>
      </g>
     </g>
     <g id="text_20">
      <!-- 0.10 -->
      <g transform="translate(10.674375 223.948541)scale(0.1 -0.1)">
       <use xlink:href="#DejaVuSans-30"/>
       <use x="63.623047" xlink:href="#DejaVuSans-2e"/>
       <use x="95.410156" xlink:href="#DejaVuSans-31"/>
       <use x="159.033203" xlink:href="#DejaVuSans-30"/>
      </g>
     </g>
    </g>
    <g id="ytick_4">
     <g id="line2d_21">
      <g>
       <use style="stroke:#000000;stroke-width:0.8;" x="39.94" xlink:href="#m57f795fbf1" y="181.059186"/>
      </g>
     </g>
     <g id="text_21">
      <!-- 0.15 -->
      <g transform="translate(10.674375 184.858405)scale(0.1 -0.1)">
       <use xlink:href="#DejaVuSans-30"/>
       <use x="63.623047" xlink:href="#DejaVuSans-2e"/>
       <use x="95.410156" xlink:href="#DejaVuSans-31"/>
       <use x="159.033203" xlink:href="#DejaVuSans-35"/>
      </g>
     </g>
    </g>
    <g id="ytick_5">
     <g id="line2d_22">
      <g>
       <use style="stroke:#000000;stroke-width:0.8;" x="39.94" xlink:href="#m57f795fbf1" y="141.96905"/>
      </g>
     </g>
     <g id="text_22">
      <!-- 0.20 -->
      <g transform="translate(10.674375 145.768269)scale(0.1 -0.1)">
       <use xlink:href="#DejaVuSans-30"/>
       <use x="63.623047" xlink:href="#DejaVuSans-2e"/>
       <use x="95.410156" xlink:href="#DejaVuSans-32"/>
       <use x="159.033203" xlink:href="#DejaVuSans-30"/>
      </g>
     </g>
    </g>
    <g id="ytick_6">
     <g id="line2d_23">
      <g>
       <use style="stroke:#000000;stroke-width:0.8;" x="39.94" xlink:href="#m57f795fbf1" y="102.878914"/>
      </g>
     </g>
     <g id="text_23">
      <!-- 0.25 -->
      <g transform="translate(10.674375 106.678133)scale(0.1 -0.1)">
       <use xlink:href="#DejaVuSans-30"/>
       <use x="63.623047" xlink:href="#DejaVuSans-2e"/>
       <use x="95.410156" xlink:href="#DejaVuSans-32"/>
       <use x="159.033203" xlink:href="#DejaVuSans-35"/>
      </g>
     </g>
    </g>
    <g id="ytick_7">
     <g id="line2d_24">
      <g>
       <use style="stroke:#000000;stroke-width:0.8;" x="39.94" xlink:href="#m57f795fbf1" y="63.788778"/>
      </g>
     </g>
     <g id="text_24">
      <!-- 0.30 -->
      <g transform="translate(10.674375 67.587996)scale(0.1 -0.1)">
       <use xlink:href="#DejaVuSans-30"/>
       <use x="63.623047" xlink:href="#DejaVuSans-2e"/>
       <use x="95.410156" xlink:href="#DejaVuSans-33"/>
       <use x="159.033203" xlink:href="#DejaVuSans-30"/>
      </g>
     </g>
    </g>
    <g id="ytick_8">
     <g id="line2d_25">
      <g>
       <use style="stroke:#000000;stroke-width:0.8;" x="39.94" xlink:href="#m57f795fbf1" y="24.698642"/>
      </g>
     </g>
     <g id="text_25">
      <!-- 0.35 -->
      <g transform="translate(10.674375 28.49786)scale(0.1 -0.1)">
       <use xlink:href="#DejaVuSans-30"/>
       <use x="63.623047" xlink:href="#DejaVuSans-2e"/>
       <use x="95.410156" xlink:href="#DejaVuSans-33"/>
       <use x="159.033203" xlink:href="#DejaVuSans-35"/>
      </g>
     </g>
    </g>
   </g>
   <g id="line2d_26">
    <path clip-path="url(#p14a464a381)" d="M 61.401765 298.329594 
L 61.401765 227.332388 
" style="fill:none;stroke:#1f77b4;stroke-width:5;"/>
   </g>
   <g id="line2d_27">
    <path clip-path="url(#p14a464a381)" d="M 69.986471 298.329594 
L 69.986471 165.94765 
" style="fill:none;stroke:#1f77b4;stroke-width:5;"/>
   </g>
   <g id="line2d_28">
    <path clip-path="url(#p14a464a381)" d="M 52.817059 298.329594 
L 52.817059 52.658146 
" style="fill:none;stroke:#1f77b4;stroke-width:5;"/>
   </g>
   <g id="line2d_29">
    <path clip-path="url(#p14a464a381)" d="M 95.740588 298.329594 
L 95.740588 254.387491 
" style="fill:none;stroke:#1f77b4;stroke-width:5;"/>
   </g>
   <g id="line2d_30">
    <path clip-path="url(#p14a464a381)" d="M 78.571176 298.329594 
L 78.571176 246.74966 
" style="fill:none;stroke:#1f77b4;stroke-width:5;"/>
   </g>
   <g id="line2d_31">
    <path clip-path="url(#p14a464a381)" d="M 121.494706 298.329594 
L 121.494706 275.326346 
" style="fill:none;stroke:#1f77b4;stroke-width:5;"/>
   </g>
   <g id="line2d_32">
    <path clip-path="url(#p14a464a381)" d="M 44.232353 298.329594 
L 44.232353 297.12857 
" style="fill:none;stroke:#1f77b4;stroke-width:5;"/>
   </g>
   <g id="line2d_33">
    <path clip-path="url(#p14a464a381)" d="M 104.325294 298.329594 
L 104.325294 237.162836 
" style="fill:none;stroke:#1f77b4;stroke-width:5;"/>
   </g>
   <g id="line2d_34">
    <path clip-path="url(#p14a464a381)" d="M 87.155882 298.329594 
L 87.155882 208.979368 
" style="fill:none;stroke:#1f77b4;stroke-width:5;"/>
   </g>
   <g id="line2d_35">
    <path clip-path="url(#p14a464a381)" d="M 112.91 298.329594 
L 112.91 267.367957 
" style="fill:none;stroke:#1f77b4;stroke-width:5;"/>
   </g>
   <g id="line2d_36">
    <path clip-path="url(#p14a464a381)" d="M 130.079412 298.329594 
L 130.079412 289.324049 
" style="fill:none;stroke:#1f77b4;stroke-width:5;"/>
   </g>
   <g id="line2d_37">
    <path clip-path="url(#p14a464a381)" d="M 164.418235 298.329594 
L 164.418235 279.839803 
" style="fill:none;stroke:#1f77b4;stroke-width:5;"/>
   </g>
   <g id="line2d_38">
    <path clip-path="url(#p14a464a381)" d="M 138.664118 298.329594 
L 138.664118 294.747892 
" style="fill:none;stroke:#1f77b4;stroke-width:5;"/>
   </g>
   <g id="line2d_39">
    <path clip-path="url(#p14a464a381)" d="M 155.833529 298.329594 
L 155.833529 298.291127 
" style="fill:none;stroke:#1f77b4;stroke-width:5;"/>
   </g>
   <g id="line2d_40">
    <path clip-path="url(#p14a464a381)" d="M 147.248824 298.329594 
L 147.248824 297.910732 
" style="fill:none;stroke:#1f77b4;stroke-width:5;"/>
   </g>
   <g id="line2d_41">
    <path clip-path="url(#p14a464a381)" d="M 181.587647 298.329594 
L 181.587647 298.321046 
" style="fill:none;stroke:#1f77b4;stroke-width:5;"/>
   </g>
   <g id="line2d_42">
    <path clip-path="url(#p14a464a381)" d="M 173.002941 298.329594 
L 173.002941 298.32532 
" style="fill:none;stroke:#1f77b4;stroke-width:5;"/>
   </g>
   <g id="line2d_43">
    <defs>
     <path d="M -2.5 0 
L 2.5 0 
M 0 2.5 
L 0 -2.5 
" id="m267170496e" style="stroke:#ff7f0e;"/>
    </defs>
    <g clip-path="url(#p14a464a381)">
     <use style="fill:#ff7f0e;stroke:#ff7f0e;" x="52.817059" xlink:href="#m267170496e" y="66.440569"/>
     <use style="fill:#ff7f0e;stroke:#ff7f0e;" x="69.986471" xlink:href="#m267170496e" y="177.686428"/>
     <use style="fill:#ff7f0e;stroke:#ff7f0e;" x="78.571176" xlink:href="#m267170496e" y="252.48443"/>
     <use style="fill:#ff7f0e;stroke:#ff7f0e;" x="61.401765" xlink:href="#m267170496e" y="225.205606"/>
     <use style="fill:#ff7f0e;stroke:#ff7f0e;" x="164.418235" xlink:href="#m267170496e" y="195.377715"/>
     <use style="fill:#ff7f0e;stroke:#ff7f0e;" x="87.155882" xlink:href="#m267170496e" y="220.107472"/>
     <use style="fill:#ff7f0e;stroke:#ff7f0e;" x="95.740588" xlink:href="#m267170496e" y="258.07716"/>
     <use style="fill:#ff7f0e;stroke:#ff7f0e;" x="104.325294" xlink:href="#m267170496e" y="250.429958"/>
     <use style="fill:#ff7f0e;stroke:#ff7f0e;" x="121.494706" xlink:href="#m267170496e" y="284.518976"/>
     <use style="fill:#ff7f0e;stroke:#ff7f0e;" x="112.91" xlink:href="#m267170496e" y="276.263042"/>
     <use style="fill:#ff7f0e;stroke:#ff7f0e;" x="130.079412" xlink:href="#m267170496e" y="294.677199"/>
     <use style="fill:#ff7f0e;stroke:#ff7f0e;" x="44.232353" xlink:href="#m267170496e" y="298.063274"/>
     <use style="fill:#ff7f0e;stroke:#ff7f0e;" x="138.664118" xlink:href="#m267170496e" y="297.264312"/>
     <use style="fill:#ff7f0e;stroke:#ff7f0e;" x="173.002941" xlink:href="#m267170496e" y="298.291549"/>
     <use style="fill:#ff7f0e;stroke:#ff7f0e;" x="155.833529" xlink:href="#m267170496e" y="298.291549"/>
     <use style="fill:#ff7f0e;stroke:#ff7f0e;" x="147.248824" xlink:href="#m267170496e" y="298.291549"/>
    </g>
   </g>
   <g id="patch_3">
    <path d="M 39.94 298.329594 
L 39.94 24.698642 
" style="fill:none;stroke:#000000;stroke-linecap:square;stroke-linejoin:miter;stroke-width:0.8;"/>
   </g>
   <g id="patch_4">
    <path d="M 185.88 298.329594 
L 185.88 24.698642 
" style="fill:none;stroke:#000000;stroke-linecap:square;stroke-linejoin:miter;stroke-width:0.8;"/>
   </g>
   <g id="patch_5">
    <path d="M 39.94 298.329594 
L 185.88 298.329594 
" style="fill:none;stroke:#000000;stroke-linecap:square;stroke-linejoin:miter;stroke-width:0.8;"/>
   </g>
   <g id="patch_6">
    <path d="M 39.94 24.698642 
L 185.88 24.698642 
" style="fill:none;stroke:#000000;stroke-linecap:square;stroke-linejoin:miter;stroke-width:0.8;"/>
   </g>
   <g id="text_26">
    <!-- left -->
    <defs>
     <path d="M 9.421875 75.984375 
L 18.40625 75.984375 
L 18.40625 0 
L 9.421875 0 
z
" id="DejaVuSans-6c"/>
     <path d="M 37.109375 75.984375 
L 37.109375 68.5 
L 28.515625 68.5 
Q 23.6875 68.5 21.796875 66.546875 
Q 19.921875 64.59375 19.921875 59.515625 
L 19.921875 54.6875 
L 34.71875 54.6875 
L 34.71875 47.703125 
L 19.921875 47.703125 
L 19.921875 0 
L 10.890625 0 
L 10.890625 47.703125 
L 2.296875 47.703125 
L 2.296875 54.6875 
L 10.890625 54.6875 
L 10.890625 58.5 
Q 10.890625 67.625 15.140625 71.796875 
Q 19.390625 75.984375 28.609375 75.984375 
z
" id="DejaVuSans-66"/>
     <path d="M 18.3125 70.21875 
L 18.3125 54.6875 
L 36.8125 54.6875 
L 36.8125 47.703125 
L 18.3125 47.703125 
L 18.3125 18.015625 
Q 18.3125 11.328125 20.140625 9.421875 
Q 21.96875 7.515625 27.59375 7.515625 
L 36.8125 7.515625 
L 36.8125 0 
L 27.59375 0 
Q 17.1875 0 13.234375 3.875 
Q 9.28125 7.765625 9.28125 18.015625 
L 9.28125 47.703125 
L 2.6875 47.703125 
L 2.6875 54.6875 
L 9.28125 54.6875 
L 9.28125 70.21875 
z
" id="DejaVuSans-74"/>
    </defs>
    <g transform="translate(104.724844 18.698642)scale(0.1 -0.1)">
     <use xlink:href="#DejaVuSans-6c"/>
     <use x="27.783203" xlink:href="#DejaVuSans-65"/>
     <use x="89.306641" xlink:href="#DejaVuSans-66"/>
     <use x="124.496094" xlink:href="#DejaVuSans-74"/>
    </g>
   </g>
  </g>
  <g id="axes_2">
   <g id="patch_7">
    <path d="M 228.34 298.329594 
L 374.28 298.329594 
L 374.28 24.698642 
L 228.34 24.698642 
z
" style="fill:#ffffff;"/>
   </g>
   <g id="matplotlib.axis_3">
    <g id="xtick_18">
     <g id="line2d_44">
      <g>
       <use style="stroke:#000000;stroke-width:0.8;" x="232.632353" xlink:href="#mb5fb9d026e" y="298.329594"/>
      </g>
     </g>
     <g id="text_27">
      <!-- One -->
      <g transform="translate(235.391728 325.692094)rotate(-90)scale(0.1 -0.1)">
       <use xlink:href="#DejaVuSans-4f"/>
       <use x="78.710938" xlink:href="#DejaVuSans-6e"/>
       <use x="142.089844" xlink:href="#DejaVuSans-65"/>
      </g>
     </g>
    </g>
    <g id="xtick_19">
     <g id="line2d_45">
      <g>
       <use style="stroke:#000000;stroke-width:0.8;" x="241.217059" xlink:href="#mb5fb9d026e" y="298.329594"/>
      </g>
     </g>
     <g id="text_28">
      <!-- 2 -->
      <g transform="translate(243.976434 311.692094)rotate(-90)scale(0.1 -0.1)">
       <use xlink:href="#DejaVuSans-32"/>
      </g>
     </g>
    </g>
    <g id="xtick_20">
     <g id="line2d_46">
      <g>
       <use style="stroke:#000000;stroke-width:0.8;" x="249.801765" xlink:href="#mb5fb9d026e" y="298.329594"/>
      </g>
     </g>
     <g id="text_29">
      <!-- 3 -->
      <g transform="translate(252.56114 311.692094)rotate(-90)scale(0.1 -0.1)">
       <use xlink:href="#DejaVuSans-33"/>
      </g>
     </g>
    </g>
    <g id="xtick_21">
     <g id="line2d_47">
      <g>
       <use style="stroke:#000000;stroke-width:0.8;" x="258.386471" xlink:href="#mb5fb9d026e" y="298.329594"/>
      </g>
     </g>
     <g id="text_30">
      <!-- 4 -->
      <g transform="translate(261.145846 311.692094)rotate(-90)scale(0.1 -0.1)">
       <use xlink:href="#DejaVuSans-34"/>
      </g>
     </g>
    </g>
    <g id="xtick_22">
     <g id="line2d_48">
      <g>
       <use style="stroke:#000000;stroke-width:0.8;" x="266.971176" xlink:href="#mb5fb9d026e" y="298.329594"/>
      </g>
     </g>
     <g id="text_31">
      <!-- 5 -->
      <g transform="translate(269.730551 311.692094)rotate(-90)scale(0.1 -0.1)">
       <use xlink:href="#DejaVuSans-35"/>
      </g>
     </g>
    </g>
    <g id="xtick_23">
     <g id="line2d_49">
      <g>
       <use style="stroke:#000000;stroke-width:0.8;" x="275.555882" xlink:href="#mb5fb9d026e" y="298.329594"/>
      </g>
     </g>
     <g id="text_32">
      <!-- 6 -->
      <g transform="translate(278.315257 311.692094)rotate(-90)scale(0.1 -0.1)">
       <use xlink:href="#DejaVuSans-36"/>
      </g>
     </g>
    </g>
    <g id="xtick_24">
     <g id="line2d_50">
      <g>
       <use style="stroke:#000000;stroke-width:0.8;" x="284.140588" xlink:href="#mb5fb9d026e" y="298.329594"/>
      </g>
     </g>
     <g id="text_33">
      <!-- 7 -->
      <g transform="translate(286.899963 311.692094)rotate(-90)scale(0.1 -0.1)">
       <use xlink:href="#DejaVuSans-37"/>
      </g>
     </g>
    </g>
    <g id="xtick_25">
     <g id="line2d_51">
      <g>
       <use style="stroke:#000000;stroke-width:0.8;" x="292.725294" xlink:href="#mb5fb9d026e" y="298.329594"/>
      </g>
     </g>
     <g id="text_34">
      <!-- 8 -->
      <g transform="translate(295.484669 311.692094)rotate(-90)scale(0.1 -0.1)">
       <use xlink:href="#DejaVuSans-38"/>
      </g>
     </g>
    </g>
    <g id="xtick_26">
     <g id="line2d_52">
      <g>
       <use style="stroke:#000000;stroke-width:0.8;" x="301.31" xlink:href="#mb5fb9d026e" y="298.329594"/>
      </g>
     </g>
     <g id="text_35">
      <!-- 9 -->
      <g transform="translate(304.069375 311.692094)rotate(-90)scale(0.1 -0.1)">
       <use xlink:href="#DejaVuSans-39"/>
      </g>
     </g>
    </g>
    <g id="xtick_27">
     <g id="line2d_53">
      <g>
       <use style="stroke:#000000;stroke-width:0.8;" x="309.894706" xlink:href="#mb5fb9d026e" y="298.329594"/>
      </g>
     </g>
     <g id="text_36">
      <!-- 10 -->
      <g transform="translate(312.654081 318.054594)rotate(-90)scale(0.1 -0.1)">
       <use xlink:href="#DejaVuSans-31"/>
       <use x="63.623047" xlink:href="#DejaVuSans-30"/>
      </g>
     </g>
    </g>
    <g id="xtick_28">
     <g id="line2d_54">
      <g>
       <use style="stroke:#000000;stroke-width:0.8;" x="318.479412" xlink:href="#mb5fb9d026e" y="298.329594"/>
      </g>
     </g>
     <g id="text_37">
      <!-- J -->
      <g transform="translate(321.238787 308.279594)rotate(-90)scale(0.1 -0.1)">
       <use xlink:href="#DejaVuSans-4a"/>
      </g>
     </g>
    </g>
    <g id="xtick_29">
     <g id="line2d_55">
      <g>
       <use style="stroke:#000000;stroke-width:0.8;" x="327.064118" xlink:href="#mb5fb9d026e" y="298.329594"/>
      </g>
     </g>
     <g id="text_38">
      <!-- Q -->
      <g transform="translate(329.823493 313.201469)rotate(-90)scale(0.1 -0.1)">
       <use xlink:href="#DejaVuSans-51"/>
      </g>
     </g>
    </g>
    <g id="xtick_30">
     <g id="line2d_56">
      <g>
       <use style="stroke:#000000;stroke-width:0.8;" x="335.648824" xlink:href="#mb5fb9d026e" y="298.329594"/>
      </g>
     </g>
     <g id="text_39">
      <!-- K -->
      <g transform="translate(338.408199 311.887407)rotate(-90)scale(0.1 -0.1)">
       <use xlink:href="#DejaVuSans-4b"/>
      </g>
     </g>
    </g>
    <g id="xtick_31">
     <g id="line2d_57">
      <g>
       <use style="stroke:#000000;stroke-width:0.8;" x="344.233529" xlink:href="#mb5fb9d026e" y="298.329594"/>
      </g>
     </g>
     <g id="text_40">
      <!-- A -->
      <g transform="translate(346.992904 312.170219)rotate(-90)scale(0.1 -0.1)">
       <use xlink:href="#DejaVuSans-41"/>
      </g>
     </g>
    </g>
    <g id="xtick_32">
     <g id="line2d_58">
      <g>
       <use style="stroke:#000000;stroke-width:0.8;" x="352.818235" xlink:href="#mb5fb9d026e" y="298.329594"/>
      </g>
     </g>
     <g id="text_41">
      <!-- Dog -->
      <g transform="translate(355.57761 325.496782)rotate(-90)scale(0.1 -0.1)">
       <use xlink:href="#DejaVuSans-44"/>
       <use x="77.001953" xlink:href="#DejaVuSans-6f"/>
       <use x="138.183594" xlink:href="#DejaVuSans-67"/>
      </g>
     </g>
    </g>
    <g id="xtick_33">
     <g id="line2d_59">
      <g>
       <use style="stroke:#000000;stroke-width:0.8;" x="361.402941" xlink:href="#mb5fb9d026e" y="298.329594"/>
      </g>
     </g>
     <g id="text_42">
      <!-- Phoenix -->
      <g transform="translate(364.162316 345.003032)rotate(-90)scale(0.1 -0.1)">
       <use xlink:href="#DejaVuSans-50"/>
       <use x="60.302734" xlink:href="#DejaVuSans-68"/>
       <use x="123.681641" xlink:href="#DejaVuSans-6f"/>
       <use x="184.863281" xlink:href="#DejaVuSans-65"/>
       <use x="246.386719" xlink:href="#DejaVuSans-6e"/>
       <use x="309.765625" xlink:href="#DejaVuSans-69"/>
       <use x="337.548828" xlink:href="#DejaVuSans-78"/>
      </g>
     </g>
    </g>
    <g id="xtick_34">
     <g id="line2d_60">
      <g>
       <use style="stroke:#000000;stroke-width:0.8;" x="369.987647" xlink:href="#mb5fb9d026e" y="298.329594"/>
      </g>
     </g>
     <g id="text_43">
      <!-- Dragon -->
      <g transform="translate(372.747022 342.073344)rotate(-90)scale(0.1 -0.1)">
       <use xlink:href="#DejaVuSans-44"/>
       <use x="77.001953" xlink:href="#DejaVuSans-72"/>
       <use x="118.115234" xlink:href="#DejaVuSans-61"/>
       <use x="179.394531" xlink:href="#DejaVuSans-67"/>
       <use x="242.871094" xlink:href="#DejaVuSans-6f"/>
       <use x="304.052734" xlink:href="#DejaVuSans-6e"/>
      </g>
     </g>
    </g>
   </g>
   <g id="matplotlib.axis_4">
    <g id="ytick_9">
     <g id="line2d_61">
      <g>
       <use style="stroke:#000000;stroke-width:0.8;" x="228.34" xlink:href="#m57f795fbf1" y="298.329594"/>
      </g>
     </g>
     <g id="text_44">
      <!-- 0.0 -->
      <g transform="translate(205.436875 302.128813)scale(0.1 -0.1)">
       <use xlink:href="#DejaVuSans-30"/>
       <use x="63.623047" xlink:href="#DejaVuSans-2e"/>
       <use x="95.410156" xlink:href="#DejaVuSans-30"/>
      </g>
     </g>
    </g>
    <g id="ytick_10">
     <g id="line2d_62">
      <g>
       <use style="stroke:#000000;stroke-width:0.8;" x="228.34" xlink:href="#m57f795fbf1" y="243.603404"/>
      </g>
     </g>
     <g id="text_45">
      <!-- 0.1 -->
      <g transform="translate(205.436875 247.402623)scale(0.1 -0.1)">
       <use xlink:href="#DejaVuSans-30"/>
       <use x="63.623047" xlink:href="#DejaVuSans-2e"/>
       <use x="95.410156" xlink:href="#DejaVuSans-31"/>
      </g>
     </g>
    </g>
    <g id="ytick_11">
     <g id="line2d_63">
      <g>
       <use style="stroke:#000000;stroke-width:0.8;" x="228.34" xlink:href="#m57f795fbf1" y="188.877213"/>
      </g>
     </g>
     <g id="text_46">
      <!-- 0.2 -->
      <g transform="translate(205.436875 192.676432)scale(0.1 -0.1)">
       <use xlink:href="#DejaVuSans-30"/>
       <use x="63.623047" xlink:href="#DejaVuSans-2e"/>
       <use x="95.410156" xlink:href="#DejaVuSans-32"/>
      </g>
     </g>
    </g>
    <g id="ytick_12">
     <g id="line2d_64">
      <g>
       <use style="stroke:#000000;stroke-width:0.8;" x="228.34" xlink:href="#m57f795fbf1" y="134.151023"/>
      </g>
     </g>
     <g id="text_47">
      <!-- 0.3 -->
      <g transform="translate(205.436875 137.950241)scale(0.1 -0.1)">
       <use xlink:href="#DejaVuSans-30"/>
       <use x="63.623047" xlink:href="#DejaVuSans-2e"/>
       <use x="95.410156" xlink:href="#DejaVuSans-33"/>
      </g>
     </g>
    </g>
    <g id="ytick_13">
     <g id="line2d_65">
      <g>
       <use style="stroke:#000000;stroke-width:0.8;" x="228.34" xlink:href="#m57f795fbf1" y="79.424832"/>
      </g>
     </g>
     <g id="text_48">
      <!-- 0.4 -->
      <g transform="translate(205.436875 83.224051)scale(0.1 -0.1)">
       <use xlink:href="#DejaVuSans-30"/>
       <use x="63.623047" xlink:href="#DejaVuSans-2e"/>
       <use x="95.410156" xlink:href="#DejaVuSans-34"/>
      </g>
     </g>
    </g>
    <g id="ytick_14">
     <g id="line2d_66">
      <g>
       <use style="stroke:#000000;stroke-width:0.8;" x="228.34" xlink:href="#m57f795fbf1" y="24.698642"/>
      </g>
     </g>
     <g id="text_49">
      <!-- 0.5 -->
      <g transform="translate(205.436875 28.49786)scale(0.1 -0.1)">
       <use xlink:href="#DejaVuSans-30"/>
       <use x="63.623047" xlink:href="#DejaVuSans-2e"/>
       <use x="95.410156" xlink:href="#DejaVuSans-35"/>
      </g>
     </g>
    </g>
   </g>
   <g id="line2d_67">
    <path clip-path="url(#p5bb81e7948)" d="M 335.648824 298.329594 
L 335.648824 224.184935 
" style="fill:none;stroke:#1f77b4;stroke-width:5;"/>
   </g>
   <g id="line2d_68">
    <path clip-path="url(#p5bb81e7948)" d="M 361.402941 298.329594 
L 361.402941 266.887974 
" style="fill:none;stroke:#1f77b4;stroke-width:5;"/>
   </g>
   <g id="line2d_69">
    <path clip-path="url(#p5bb81e7948)" d="M 318.479412 298.329594 
L 318.479412 251.925605 
" style="fill:none;stroke:#1f77b4;stroke-width:5;"/>
   </g>
   <g id="line2d_70">
    <path clip-path="url(#p5bb81e7948)" d="M 369.987647 298.329594 
L 369.987647 238.300604 
" style="fill:none;stroke:#1f77b4;stroke-width:5;"/>
   </g>
   <g id="line2d_71">
    <path clip-path="url(#p5bb81e7948)" d="M 344.233529 298.329594 
L 344.233529 181.182708 
" style="fill:none;stroke:#1f77b4;stroke-width:5;"/>
   </g>
   <g id="line2d_72">
    <path clip-path="url(#p5bb81e7948)" d="M 352.818235 298.329594 
L 352.818235 274.508281 
" style="fill:none;stroke:#1f77b4;stroke-width:5;"/>
   </g>
   <g id="line2d_73">
    <path clip-path="url(#p5bb81e7948)" d="M 292.725294 298.329594 
L 292.725294 278.466533 
" style="fill:none;stroke:#1f77b4;stroke-width:5;"/>
   </g>
   <g id="line2d_74">
    <path clip-path="url(#p5bb81e7948)" d="M 266.971176 298.329594 
L 266.971176 290.604572 
" style="fill:none;stroke:#1f77b4;stroke-width:5;"/>
   </g>
   <g id="line2d_75">
    <path clip-path="url(#p5bb81e7948)" d="M 301.31 298.329594 
L 301.31 273.562849 
" style="fill:none;stroke:#1f77b4;stroke-width:5;"/>
   </g>
   <g id="line2d_76">
    <path clip-path="url(#p5bb81e7948)" d="M 309.894706 298.329594 
L 309.894706 261.88855 
" style="fill:none;stroke:#1f77b4;stroke-width:5;"/>
   </g>
   <g id="line2d_77">
    <path clip-path="url(#p5bb81e7948)" d="M 275.555882 298.329594 
L 275.555882 288.309803 
" style="fill:none;stroke:#1f77b4;stroke-width:5;"/>
   </g>
   <g id="line2d_78">
    <path clip-path="url(#p5bb81e7948)" d="M 284.140588 298.329594 
L 284.140588 284.166056 
" style="fill:none;stroke:#1f77b4;stroke-width:5;"/>
   </g>
   <g id="line2d_79">
    <path clip-path="url(#p5bb81e7948)" d="M 232.632353 298.329594 
L 232.632353 285.617115 
" style="fill:none;stroke:#1f77b4;stroke-width:5;"/>
   </g>
   <g id="line2d_80">
    <path clip-path="url(#p5bb81e7948)" d="M 258.386471 298.329594 
L 258.386471 293.04295 
" style="fill:none;stroke:#1f77b4;stroke-width:5;"/>
   </g>
   <g id="line2d_81">
    <path clip-path="url(#p5bb81e7948)" d="M 327.064118 298.329594 
L 327.064118 240.050851 
" style="fill:none;stroke:#1f77b4;stroke-width:5;"/>
   </g>
   <g id="line2d_82">
    <path clip-path="url(#p5bb81e7948)" d="M 241.217059 298.329594 
L 241.217059 295.855313 
" style="fill:none;stroke:#1f77b4;stroke-width:5;"/>
   </g>
   <g id="line2d_83">
    <path clip-path="url(#p5bb81e7948)" d="M 249.801765 298.329594 
L 249.801765 295.7865 
" style="fill:none;stroke:#1f77b4;stroke-width:5;"/>
   </g>
   <g id="line2d_84">
    <g clip-path="url(#p5bb81e7948)">
     <use style="fill:#ff7f0e;stroke:#ff7f0e;" x="344.233529" xlink:href="#m267170496e" y="41.463514"/>
     <use style="fill:#ff7f0e;stroke:#ff7f0e;" x="369.987647" xlink:href="#m267170496e" y="224.612092"/>
     <use style="fill:#ff7f0e;stroke:#ff7f0e;" x="335.648824" xlink:href="#m267170496e" y="217.075223"/>
     <use style="fill:#ff7f0e;stroke:#ff7f0e;" x="318.479412" xlink:href="#m267170496e" y="283.282489"/>
     <use style="fill:#ff7f0e;stroke:#ff7f0e;" x="327.064118" xlink:href="#m267170496e" y="262.85571"/>
     <use style="fill:#ff7f0e;stroke:#ff7f0e;" x="309.894706" xlink:href="#m267170496e" y="291.11231"/>
     <use style="fill:#ff7f0e;stroke:#ff7f0e;" x="361.402941" xlink:href="#m267170496e" y="232.388649"/>
     <use style="fill:#ff7f0e;stroke:#ff7f0e;" x="301.31" xlink:href="#m267170496e" y="294.947324"/>
     <use style="fill:#ff7f0e;stroke:#ff7f0e;" x="352.818235" xlink:href="#m267170496e" y="297.504001"/>
     <use style="fill:#ff7f0e;stroke:#ff7f0e;" x="266.971176" xlink:href="#m267170496e" y="297.956746"/>
     <use style="fill:#ff7f0e;stroke:#ff7f0e;" x="292.725294" xlink:href="#m267170496e" y="295.879446"/>
     <use style="fill:#ff7f0e;stroke:#ff7f0e;" x="275.555882" xlink:href="#m267170496e" y="297.637161"/>
     <use style="fill:#ff7f0e;stroke:#ff7f0e;" x="258.386471" xlink:href="#m267170496e" y="298.063274"/>
     <use style="fill:#ff7f0e;stroke:#ff7f0e;" x="241.217059" xlink:href="#m267170496e" y="298.223066"/>
     <use style="fill:#ff7f0e;stroke:#ff7f0e;" x="232.632353" xlink:href="#m267170496e" y="296.385455"/>
     <use style="fill:#ff7f0e;stroke:#ff7f0e;" x="284.140588" xlink:href="#m267170496e" y="296.944728"/>
     <use style="fill:#ff7f0e;stroke:#ff7f0e;" x="249.801765" xlink:href="#m267170496e" y="298.01001"/>
    </g>
   </g>
   <g id="patch_8">
    <path d="M 228.34 298.329594 
L 228.34 24.698642 
" style="fill:none;stroke:#000000;stroke-linecap:square;stroke-linejoin:miter;stroke-width:0.8;"/>
   </g>
   <g id="patch_9">
    <path d="M 374.28 298.329594 
L 374.28 24.698642 
" style="fill:none;stroke:#000000;stroke-linecap:square;stroke-linejoin:miter;stroke-width:0.8;"/>
   </g>
   <g id="patch_10">
    <path d="M 228.34 298.329594 
L 374.28 298.329594 
" style="fill:none;stroke:#000000;stroke-linecap:square;stroke-linejoin:miter;stroke-width:0.8;"/>
   </g>
   <g id="patch_11">
    <path d="M 228.34 24.698642 
L 374.28 24.698642 
" style="fill:none;stroke:#000000;stroke-linecap:square;stroke-linejoin:miter;stroke-width:0.8;"/>
   </g>
   <g id="text_50">
    <!-- partner -->
    <defs>
     <path d="M 18.109375 8.203125 
L 18.109375 -20.796875 
L 9.078125 -20.796875 
L 9.078125 54.6875 
L 18.109375 54.6875 
L 18.109375 46.390625 
Q 20.953125 51.265625 25.265625 53.625 
Q 29.59375 56 35.59375 56 
Q 45.5625 56 51.78125 48.09375 
Q 58.015625 40.1875 58.015625 27.296875 
Q 58.015625 14.40625 51.78125 6.484375 
Q 45.5625 -1.421875 35.59375 -1.421875 
Q 29.59375 -1.421875 25.265625 0.953125 
Q 20.953125 3.328125 18.109375 8.203125 
z
M 48.6875 27.296875 
Q 48.6875 37.203125 44.609375 42.84375 
Q 40.53125 48.484375 33.40625 48.484375 
Q 26.265625 48.484375 22.1875 42.84375 
Q 18.109375 37.203125 18.109375 27.296875 
Q 18.109375 17.390625 22.1875 11.75 
Q 26.265625 6.109375 33.40625 6.109375 
Q 40.53125 6.109375 44.609375 11.75 
Q 48.6875 17.390625 48.6875 27.296875 
z
" id="DejaVuSans-70"/>
    </defs>
    <g transform="translate(282.755312 18.698642)scale(0.1 -0.1)">
     <use xlink:href="#DejaVuSans-70"/>
     <use x="63.476562" xlink:href="#DejaVuSans-61"/>
     <use x="124.755859" xlink:href="#DejaVuSans-72"/>
     <use x="165.869141" xlink:href="#DejaVuSans-74"/>
     <use x="205.078125" xlink:href="#DejaVuSans-6e"/>
     <use x="268.457031" xlink:href="#DejaVuSans-65"/>
     <use x="329.980469" xlink:href="#DejaVuSans-72"/>
    </g>
   </g>
  </g>
  <g id="axes_3">
   <g id="patch_12">
    <path d="M 416.74 298.329594 
L 562.68 298.329594 
L 562.68 24.698642 
L 416.74 24.698642 
z
" style="fill:#ffffff;"/>
   </g>
   <g id="matplotlib.axis_5">
    <g id="xtick_35">
     <g id="line2d_85">
      <g>
       <use style="stroke:#000000;stroke-width:0.8;" x="421.032353" xlink:href="#mb5fb9d026e" y="298.329594"/>
      </g>
     </g>
     <g id="text_51">
      <!-- One -->
      <g transform="translate(423.791728 325.692094)rotate(-90)scale(0.1 -0.1)">
       <use xlink:href="#DejaVuSans-4f"/>
       <use x="78.710938" xlink:href="#DejaVuSans-6e"/>
       <use x="142.089844" xlink:href="#DejaVuSans-65"/>
      </g>
     </g>
    </g>
    <g id="xtick_36">
     <g id="line2d_86">
      <g>
       <use style="stroke:#000000;stroke-width:0.8;" x="429.617059" xlink:href="#mb5fb9d026e" y="298.329594"/>
      </g>
     </g>
     <g id="text_52">
      <!-- 2 -->
      <g transform="translate(432.376434 311.692094)rotate(-90)scale(0.1 -0.1)">
       <use xlink:href="#DejaVuSans-32"/>
      </g>
     </g>
    </g>
    <g id="xtick_37">
     <g id="line2d_87">
      <g>
       <use style="stroke:#000000;stroke-width:0.8;" x="438.201765" xlink:href="#mb5fb9d026e" y="298.329594"/>
      </g>
     </g>
     <g id="text_53">
      <!-- 3 -->
      <g transform="translate(440.96114 311.692094)rotate(-90)scale(0.1 -0.1)">
       <use xlink:href="#DejaVuSans-33"/>
      </g>
     </g>
    </g>
    <g id="xtick_38">
     <g id="line2d_88">
      <g>
       <use style="stroke:#000000;stroke-width:0.8;" x="446.786471" xlink:href="#mb5fb9d026e" y="298.329594"/>
      </g>
     </g>
     <g id="text_54">
      <!-- 4 -->
      <g transform="translate(449.545846 311.692094)rotate(-90)scale(0.1 -0.1)">
       <use xlink:href="#DejaVuSans-34"/>
      </g>
     </g>
    </g>
    <g id="xtick_39">
     <g id="line2d_89">
      <g>
       <use style="stroke:#000000;stroke-width:0.8;" x="455.371176" xlink:href="#mb5fb9d026e" y="298.329594"/>
      </g>
     </g>
     <g id="text_55">
      <!-- 5 -->
      <g transform="translate(458.130551 311.692094)rotate(-90)scale(0.1 -0.1)">
       <use xlink:href="#DejaVuSans-35"/>
      </g>
     </g>
    </g>
    <g id="xtick_40">
     <g id="line2d_90">
      <g>
       <use style="stroke:#000000;stroke-width:0.8;" x="463.955882" xlink:href="#mb5fb9d026e" y="298.329594"/>
      </g>
     </g>
     <g id="text_56">
      <!-- 6 -->
      <g transform="translate(466.715257 311.692094)rotate(-90)scale(0.1 -0.1)">
       <use xlink:href="#DejaVuSans-36"/>
      </g>
     </g>
    </g>
    <g id="xtick_41">
     <g id="line2d_91">
      <g>
       <use style="stroke:#000000;stroke-width:0.8;" x="472.540588" xlink:href="#mb5fb9d026e" y="298.329594"/>
      </g>
     </g>
     <g id="text_57">
      <!-- 7 -->
      <g transform="translate(475.299963 311.692094)rotate(-90)scale(0.1 -0.1)">
       <use xlink:href="#DejaVuSans-37"/>
      </g>
     </g>
    </g>
    <g id="xtick_42">
     <g id="line2d_92">
      <g>
       <use style="stroke:#000000;stroke-width:0.8;" x="481.125294" xlink:href="#mb5fb9d026e" y="298.329594"/>
      </g>
     </g>
     <g id="text_58">
      <!-- 8 -->
      <g transform="translate(483.884669 311.692094)rotate(-90)scale(0.1 -0.1)">
       <use xlink:href="#DejaVuSans-38"/>
      </g>
     </g>
    </g>
    <g id="xtick_43">
     <g id="line2d_93">
      <g>
       <use style="stroke:#000000;stroke-width:0.8;" x="489.71" xlink:href="#mb5fb9d026e" y="298.329594"/>
      </g>
     </g>
     <g id="text_59">
      <!-- 9 -->
      <g transform="translate(492.469375 311.692094)rotate(-90)scale(0.1 -0.1)">
       <use xlink:href="#DejaVuSans-39"/>
      </g>
     </g>
    </g>
    <g id="xtick_44">
     <g id="line2d_94">
      <g>
       <use style="stroke:#000000;stroke-width:0.8;" x="498.294706" xlink:href="#mb5fb9d026e" y="298.329594"/>
      </g>
     </g>
     <g id="text_60">
      <!-- 10 -->
      <g transform="translate(501.054081 318.054594)rotate(-90)scale(0.1 -0.1)">
       <use xlink:href="#DejaVuSans-31"/>
       <use x="63.623047" xlink:href="#DejaVuSans-30"/>
      </g>
     </g>
    </g>
    <g id="xtick_45">
     <g id="line2d_95">
      <g>
       <use style="stroke:#000000;stroke-width:0.8;" x="506.879412" xlink:href="#mb5fb9d026e" y="298.329594"/>
      </g>
     </g>
     <g id="text_61">
      <!-- J -->
      <g transform="translate(509.638787 308.279594)rotate(-90)scale(0.1 -0.1)">
       <use xlink:href="#DejaVuSans-4a"/>
      </g>
     </g>
    </g>
    <g id="xtick_46">
     <g id="line2d_96">
      <g>
       <use style="stroke:#000000;stroke-width:0.8;" x="515.464118" xlink:href="#mb5fb9d026e" y="298.329594"/>
      </g>
     </g>
     <g id="text_62">
      <!-- Q -->
      <g transform="translate(518.223493 313.201469)rotate(-90)scale(0.1 -0.1)">
       <use xlink:href="#DejaVuSans-51"/>
      </g>
     </g>
    </g>
    <g id="xtick_47">
     <g id="line2d_97">
      <g>
       <use style="stroke:#000000;stroke-width:0.8;" x="524.048824" xlink:href="#mb5fb9d026e" y="298.329594"/>
      </g>
     </g>
     <g id="text_63">
      <!-- K -->
      <g transform="translate(526.808199 311.887407)rotate(-90)scale(0.1 -0.1)">
       <use xlink:href="#DejaVuSans-4b"/>
      </g>
     </g>
    </g>
    <g id="xtick_48">
     <g id="line2d_98">
      <g>
       <use style="stroke:#000000;stroke-width:0.8;" x="532.633529" xlink:href="#mb5fb9d026e" y="298.329594"/>
      </g>
     </g>
     <g id="text_64">
      <!-- A -->
      <g transform="translate(535.392904 312.170219)rotate(-90)scale(0.1 -0.1)">
       <use xlink:href="#DejaVuSans-41"/>
      </g>
     </g>
    </g>
    <g id="xtick_49">
     <g id="line2d_99">
      <g>
       <use style="stroke:#000000;stroke-width:0.8;" x="541.218235" xlink:href="#mb5fb9d026e" y="298.329594"/>
      </g>
     </g>
     <g id="text_65">
      <!-- Dog -->
      <g transform="translate(543.97761 325.496782)rotate(-90)scale(0.1 -0.1)">
       <use xlink:href="#DejaVuSans-44"/>
       <use x="77.001953" xlink:href="#DejaVuSans-6f"/>
       <use x="138.183594" xlink:href="#DejaVuSans-67"/>
      </g>
     </g>
    </g>
    <g id="xtick_50">
     <g id="line2d_100">
      <g>
       <use style="stroke:#000000;stroke-width:0.8;" x="549.802941" xlink:href="#mb5fb9d026e" y="298.329594"/>
      </g>
     </g>
     <g id="text_66">
      <!-- Phoenix -->
      <g transform="translate(552.562316 345.003032)rotate(-90)scale(0.1 -0.1)">
       <use xlink:href="#DejaVuSans-50"/>
       <use x="60.302734" xlink:href="#DejaVuSans-68"/>
       <use x="123.681641" xlink:href="#DejaVuSans-6f"/>
       <use x="184.863281" xlink:href="#DejaVuSans-65"/>
       <use x="246.386719" xlink:href="#DejaVuSans-6e"/>
       <use x="309.765625" xlink:href="#DejaVuSans-69"/>
       <use x="337.548828" xlink:href="#DejaVuSans-78"/>
      </g>
     </g>
    </g>
    <g id="xtick_51">
     <g id="line2d_101">
      <g>
       <use style="stroke:#000000;stroke-width:0.8;" x="558.387647" xlink:href="#mb5fb9d026e" y="298.329594"/>
      </g>
     </g>
     <g id="text_67">
      <!-- Dragon -->
      <g transform="translate(561.147022 342.073344)rotate(-90)scale(0.1 -0.1)">
       <use xlink:href="#DejaVuSans-44"/>
       <use x="77.001953" xlink:href="#DejaVuSans-72"/>
       <use x="118.115234" xlink:href="#DejaVuSans-61"/>
       <use x="179.394531" xlink:href="#DejaVuSans-67"/>
       <use x="242.871094" xlink:href="#DejaVuSans-6f"/>
       <use x="304.052734" xlink:href="#DejaVuSans-6e"/>
      </g>
     </g>
    </g>
   </g>
   <g id="matplotlib.axis_6">
    <g id="ytick_15">
     <g id="line2d_102">
      <g>
       <use style="stroke:#000000;stroke-width:0.8;" x="416.74" xlink:href="#m57f795fbf1" y="298.329594"/>
      </g>
     </g>
     <g id="text_68">
      <!-- 0.00 -->
      <g transform="translate(387.474375 302.128813)scale(0.1 -0.1)">
       <use xlink:href="#DejaVuSans-30"/>
       <use x="63.623047" xlink:href="#DejaVuSans-2e"/>
       <use x="95.410156" xlink:href="#DejaVuSans-30"/>
       <use x="159.033203" xlink:href="#DejaVuSans-30"/>
      </g>
     </g>
    </g>
    <g id="ytick_16">
     <g id="line2d_103">
      <g>
       <use style="stroke:#000000;stroke-width:0.8;" x="416.74" xlink:href="#m57f795fbf1" y="243.603404"/>
      </g>
     </g>
     <g id="text_69">
      <!-- 0.05 -->
      <g transform="translate(387.474375 247.402623)scale(0.1 -0.1)">
       <use xlink:href="#DejaVuSans-30"/>
       <use x="63.623047" xlink:href="#DejaVuSans-2e"/>
       <use x="95.410156" xlink:href="#DejaVuSans-30"/>
       <use x="159.033203" xlink:href="#DejaVuSans-35"/>
      </g>
     </g>
    </g>
    <g id="ytick_17">
     <g id="line2d_104">
      <g>
       <use style="stroke:#000000;stroke-width:0.8;" x="416.74" xlink:href="#m57f795fbf1" y="188.877213"/>
      </g>
     </g>
     <g id="text_70">
      <!-- 0.10 -->
      <g transform="translate(387.474375 192.676432)scale(0.1 -0.1)">
       <use xlink:href="#DejaVuSans-30"/>
       <use x="63.623047" xlink:href="#DejaVuSans-2e"/>
       <use x="95.410156" xlink:href="#DejaVuSans-31"/>
       <use x="159.033203" xlink:href="#DejaVuSans-30"/>
      </g>
     </g>
    </g>
    <g id="ytick_18">
     <g id="line2d_105">
      <g>
       <use style="stroke:#000000;stroke-width:0.8;" x="416.74" xlink:href="#m57f795fbf1" y="134.151023"/>
      </g>
     </g>
     <g id="text_71">
      <!-- 0.15 -->
      <g transform="translate(387.474375 137.950241)scale(0.1 -0.1)">
       <use xlink:href="#DejaVuSans-30"/>
       <use x="63.623047" xlink:href="#DejaVuSans-2e"/>
       <use x="95.410156" xlink:href="#DejaVuSans-31"/>
       <use x="159.033203" xlink:href="#DejaVuSans-35"/>
      </g>
     </g>
    </g>
    <g id="ytick_19">
     <g id="line2d_106">
      <g>
       <use style="stroke:#000000;stroke-width:0.8;" x="416.74" xlink:href="#m57f795fbf1" y="79.424832"/>
      </g>
     </g>
     <g id="text_72">
      <!-- 0.20 -->
      <g transform="translate(387.474375 83.224051)scale(0.1 -0.1)">
       <use xlink:href="#DejaVuSans-30"/>
       <use x="63.623047" xlink:href="#DejaVuSans-2e"/>
       <use x="95.410156" xlink:href="#DejaVuSans-32"/>
       <use x="159.033203" xlink:href="#DejaVuSans-30"/>
      </g>
     </g>
    </g>
    <g id="ytick_20">
     <g id="line2d_107">
      <g>
       <use style="stroke:#000000;stroke-width:0.8;" x="416.74" xlink:href="#m57f795fbf1" y="24.698642"/>
      </g>
     </g>
     <g id="text_73">
      <!-- 0.25 -->
      <g transform="translate(387.474375 28.49786)scale(0.1 -0.1)">
       <use xlink:href="#DejaVuSans-30"/>
       <use x="63.623047" xlink:href="#DejaVuSans-2e"/>
       <use x="95.410156" xlink:href="#DejaVuSans-32"/>
       <use x="159.033203" xlink:href="#DejaVuSans-35"/>
      </g>
     </g>
    </g>
   </g>
   <g id="line2d_108">
    <path clip-path="url(#p999229b5cb)" d="M 429.617059 298.329594 
L 429.617059 167.698325 
" style="fill:none;stroke:#1f77b4;stroke-width:5;"/>
   </g>
   <g id="line2d_109">
    <path clip-path="url(#p999229b5cb)" d="M 472.540588 298.329594 
L 472.540588 175.620811 
" style="fill:none;stroke:#1f77b4;stroke-width:5;"/>
   </g>
   <g id="line2d_110">
    <path clip-path="url(#p999229b5cb)" d="M 446.786471 298.329594 
L 446.786471 197.162315 
" style="fill:none;stroke:#1f77b4;stroke-width:5;"/>
   </g>
   <g id="line2d_111">
    <path clip-path="url(#p999229b5cb)" d="M 438.201765 298.329594 
L 438.201765 34.308546 
" style="fill:none;stroke:#1f77b4;stroke-width:5;"/>
   </g>
   <g id="line2d_112">
    <path clip-path="url(#p999229b5cb)" d="M 481.125294 298.329594 
L 481.125294 231.41929 
" style="fill:none;stroke:#1f77b4;stroke-width:5;"/>
   </g>
   <g id="line2d_113">
    <path clip-path="url(#p999229b5cb)" d="M 463.955882 298.329594 
L 463.955882 212.929499 
" style="fill:none;stroke:#1f77b4;stroke-width:5;"/>
   </g>
   <g id="line2d_114">
    <path clip-path="url(#p999229b5cb)" d="M 541.218235 298.329594 
L 541.218235 269.368239 
" style="fill:none;stroke:#1f77b4;stroke-width:5;"/>
   </g>
   <g id="line2d_115">
    <path clip-path="url(#p999229b5cb)" d="M 455.371176 298.329594 
L 455.371176 134.380799 
" style="fill:none;stroke:#1f77b4;stroke-width:5;"/>
   </g>
   <g id="line2d_116">
    <path clip-path="url(#p999229b5cb)" d="M 489.71 298.329594 
L 489.71 219.553511 
" style="fill:none;stroke:#1f77b4;stroke-width:5;"/>
   </g>
   <g id="line2d_117">
    <path clip-path="url(#p999229b5cb)" d="M 506.879412 298.329594 
L 506.879412 281.41353 
" style="fill:none;stroke:#1f77b4;stroke-width:5;"/>
   </g>
   <g id="line2d_118">
    <path clip-path="url(#p999229b5cb)" d="M 498.294706 298.329594 
L 498.294706 269.697345 
" style="fill:none;stroke:#1f77b4;stroke-width:5;"/>
   </g>
   <g id="line2d_119">
    <path clip-path="url(#p999229b5cb)" d="M 524.048824 298.329594 
L 524.048824 297.832943 
" style="fill:none;stroke:#1f77b4;stroke-width:5;"/>
   </g>
   <g id="line2d_120">
    <path clip-path="url(#p999229b5cb)" d="M 515.464118 298.329594 
L 515.464118 292.986105 
" style="fill:none;stroke:#1f77b4;stroke-width:5;"/>
   </g>
   <g id="line2d_121">
    <path clip-path="url(#p999229b5cb)" d="M 421.032353 298.329594 
L 421.032353 297.820975 
" style="fill:none;stroke:#1f77b4;stroke-width:5;"/>
   </g>
   <g id="line2d_122">
    <path clip-path="url(#p999229b5cb)" d="M 532.633529 298.329594 
L 532.633529 298.281724 
" style="fill:none;stroke:#1f77b4;stroke-width:5;"/>
   </g>
   <g id="line2d_123">
    <path clip-path="url(#p999229b5cb)" d="M 558.387647 298.329594 
L 558.387647 298.287708 
" style="fill:none;stroke:#1f77b4;stroke-width:5;"/>
   </g>
   <g id="line2d_124">
    <path clip-path="url(#p999229b5cb)" d="M 549.802941 298.329594 
L 549.802941 298.317627 
" style="fill:none;stroke:#1f77b4;stroke-width:5;"/>
   </g>
   <g id="line2d_125">
    <g clip-path="url(#p999229b5cb)">
     <use style="fill:#ff7f0e;stroke:#ff7f0e;" x="463.955882" xlink:href="#m267170496e" y="224.984941"/>
     <use style="fill:#ff7f0e;stroke:#ff7f0e;" x="541.218235" xlink:href="#m267170496e" y="157.605865"/>
     <use style="fill:#ff7f0e;stroke:#ff7f0e;" x="429.617059" xlink:href="#m267170496e" y="141.999487"/>
     <use style="fill:#ff7f0e;stroke:#ff7f0e;" x="438.201765" xlink:href="#m267170496e" y="44.046823"/>
     <use style="fill:#ff7f0e;stroke:#ff7f0e;" x="446.786471" xlink:href="#m267170496e" y="201.761797"/>
     <use style="fill:#ff7f0e;stroke:#ff7f0e;" x="455.371176" xlink:href="#m267170496e" y="155.688358"/>
     <use style="fill:#ff7f0e;stroke:#ff7f0e;" x="472.540588" xlink:href="#m267170496e" y="200.057346"/>
     <use style="fill:#ff7f0e;stroke:#ff7f0e;" x="489.71" xlink:href="#m267170496e" y="241.709865"/>
     <use style="fill:#ff7f0e;stroke:#ff7f0e;" x="481.125294" xlink:href="#m267170496e" y="248.261349"/>
     <use style="fill:#ff7f0e;stroke:#ff7f0e;" x="498.294706" xlink:href="#m267170496e" y="282.297103"/>
     <use style="fill:#ff7f0e;stroke:#ff7f0e;" x="506.879412" xlink:href="#m267170496e" y="291.351998"/>
     <use style="fill:#ff7f0e;stroke:#ff7f0e;" x="515.464118" xlink:href="#m267170496e" y="296.252295"/>
     <use style="fill:#ff7f0e;stroke:#ff7f0e;" x="524.048824" xlink:href="#m267170496e" y="298.169802"/>
     <use style="fill:#ff7f0e;stroke:#ff7f0e;" x="421.032353" xlink:href="#m267170496e" y="297.903482"/>
    </g>
   </g>
   <g id="patch_13">
    <path d="M 416.74 298.329594 
L 416.74 24.698642 
" style="fill:none;stroke:#000000;stroke-linecap:square;stroke-linejoin:miter;stroke-width:0.8;"/>
   </g>
   <g id="patch_14">
    <path d="M 562.68 298.329594 
L 562.68 24.698642 
" style="fill:none;stroke:#000000;stroke-linecap:square;stroke-linejoin:miter;stroke-width:0.8;"/>
   </g>
   <g id="patch_15">
    <path d="M 416.74 298.329594 
L 562.68 298.329594 
" style="fill:none;stroke:#000000;stroke-linecap:square;stroke-linejoin:miter;stroke-width:0.8;"/>
   </g>
   <g id="patch_16">
    <path d="M 416.74 24.698642 
L 562.68 24.698642 
" style="fill:none;stroke:#000000;stroke-linecap:square;stroke-linejoin:miter;stroke-width:0.8;"/>
   </g>
   <g id="text_74">
    <!-- right -->
    <g transform="translate(477.962344 18.698642)scale(0.1 -0.1)">
     <use xlink:href="#DejaVuSans-72"/>
     <use x="41.113281" xlink:href="#DejaVuSans-69"/>
     <use x="68.896484" xlink:href="#DejaVuSans-67"/>
     <use x="132.373047" xlink:href="#DejaVuSans-68"/>
     <use x="195.751953" xlink:href="#DejaVuSans-74"/>
    </g>
   </g>
  </g>
 </g>
 <defs>
  <clipPath id="p14a464a381">
   <rect height="273.630953" width="145.94" x="39.94" y="24.698642"/>
  </clipPath>
  <clipPath id="p5bb81e7948">
   <rect height="273.630953" width="145.94" x="228.34" y="24.698642"/>
  </clipPath>
  <clipPath id="p999229b5cb">
   <rect height="273.630953" width="145.94" x="416.74" y="24.698642"/>
  </clipPath>
 </defs>
</svg>
